<svg xmlns="http://www.w3.org/2000/svg" xmlns:xlink="http://www.w3.org/1999/xlink" width="500" zoomAndPan="magnify" viewBox="0 0 375 374.999991" height="500" preserveAspectRatio="xMidYMid meet" version="1.0"><defs><clipPath id="28500b0126"><path d="M 26.828125 32.453125 L 347.828125 32.453125 L 347.828125 342.203125 L 26.828125 342.203125 Z M 26.828125 32.453125 " clip-rule="nonzero"/></clipPath></defs><g clip-path="url(#28500b0126)"><path fill="#4b9960" d="M 141.828125 342.492188 C 133.769531 342.492188 127.214844 336.0625 127.214844 328.167969 L 127.214844 245.628906 L 41.386719 245.296875 C 37.535156 245.28125 33.902344 243.804688 31.160156 241.136719 C 28.347656 238.40625 26.8125 234.777344 26.828125 230.917969 L 27.195312 142.835938 C 27.226562 134.96875 33.78125 128.570312 41.808594 128.570312 L 127.214844 128.898438 L 127.214844 46.828125 C 127.214844 38.933594 133.769531 32.503906 141.828125 32.503906 L 233.167969 32.503906 C 241.226562 32.503906 247.785156 38.933594 247.785156 46.828125 L 247.785156 129.367188 L 333.613281 129.695312 C 337.464844 129.710938 341.097656 131.1875 343.839844 133.859375 C 346.648438 136.589844 348.183594 140.21875 348.167969 144.078125 L 347.804688 232.160156 C 347.769531 240.027344 341.210938 246.425781 333.1875 246.425781 C 333.183594 246.425781 333.175781 246.425781 247.785156 246.09375 L 247.785156 328.167969 C 247.785156 336.0625 241.226562 342.492188 233.167969 342.492188 L 141.828125 342.492188 " fill-opacity="1" fill-rule="nonzero"/></g><path fill="#ffffff" d="M 141.828125 339.273438 C 135.542969 339.273438 130.429688 334.289062 130.429688 328.167969 L 130.429688 242.421875 L 41.398438 242.082031 C 38.386719 242.070312 35.542969 240.914062 33.402344 238.828125 C 31.226562 236.714844 30.035156 233.90625 30.046875 230.929688 L 30.410156 142.847656 C 30.4375 136.75 35.550781 131.785156 41.808594 131.785156 L 130.429688 132.128906 L 130.429688 46.828125 C 130.429688 40.703125 135.542969 35.722656 141.828125 35.722656 L 233.167969 35.722656 C 239.453125 35.722656 244.566406 40.703125 244.566406 46.828125 L 244.566406 132.570312 L 333.597656 132.914062 C 336.613281 132.925781 339.453125 134.082031 341.597656 136.164062 C 343.773438 138.28125 344.964844 141.085938 344.949219 144.066406 L 344.585938 232.148438 C 344.558594 238.246094 339.445312 243.207031 333.1875 243.207031 C 333.1875 243.207031 244.566406 242.867188 244.566406 242.867188 L 244.566406 328.167969 C 244.566406 334.289062 239.453125 339.273438 233.167969 339.273438 L 141.828125 339.273438 " fill-opacity="1" fill-rule="nonzero"/><path fill="#4b9960" d="M 333.585938 136.132812 L 241.347656 135.777344 L 241.347656 46.828125 C 241.347656 42.488281 237.667969 38.941406 233.167969 38.941406 L 141.828125 38.941406 C 137.328125 38.941406 133.648438 42.488281 133.648438 46.828125 L 133.648438 135.359375 L 41.84375 135.003906 C 37.34375 134.988281 33.648438 138.523438 33.628906 142.863281 L 33.265625 230.945312 C 33.246094 235.28125 36.914062 238.84375 41.410156 238.863281 L 133.648438 239.21875 L 133.648438 328.167969 C 133.648438 332.503906 137.328125 336.054688 141.828125 336.054688 L 233.167969 336.054688 C 237.667969 336.054688 241.347656 332.503906 241.347656 328.167969 L 241.347656 239.632812 L 333.15625 239.992188 C 337.652344 240.007812 341.347656 236.46875 341.367188 232.132812 L 341.730469 144.050781 C 341.75 139.710938 338.085938 136.148438 333.585938 136.132812 " fill-opacity="1" fill-rule="nonzero"/><path fill="#ffffff" d="M 206.121094 239.695312 C 203.667969 239.695312 201.183594 239.324219 198.734375 238.589844 C 192.78125 236.800781 189.8125 236.214844 188.5625 236.019531 L 187.40625 236.375 L 186.261719 236.007812 C 185.003906 236.195312 182.023438 236.757812 176.070312 238.484375 C 173.691406 239.175781 171.277344 239.523438 168.898438 239.523438 C 163.296875 239.523438 157.996094 237.546875 153.976562 233.957031 C 149.652344 230.097656 147.007812 224.710938 146.332031 218.382812 C 145.613281 211.644531 147.460938 206.382812 149.785156 202.398438 C 144.097656 200.519531 139.035156 195.847656 136.101562 189.457031 C 133.746094 184.339844 133.019531 178.675781 134.050781 173.511719 C 135.242188 167.519531 138.734375 162.675781 143.628906 160.222656 C 145.914062 159.078125 148.375 158.492188 150.945312 158.492188 C 151.675781 158.492188 152.40625 158.542969 153.132812 158.636719 C 153.230469 153.867188 154.421875 149.28125 156.613281 145.441406 C 159.816406 139.824219 164.917969 136.257812 170.613281 135.644531 C 171.195312 135.582031 171.785156 135.550781 172.367188 135.550781 C 178.257812 135.550781 183.757812 138.671875 187.605469 143.972656 C 191.660156 138.519531 197.34375 135.300781 203.3125 135.300781 C 204.613281 135.300781 205.914062 135.453125 207.179688 135.761719 C 212.746094 137.109375 217.367188 141.328125 219.851562 147.328125 C 221.316406 150.875 221.984375 154.882812 221.816406 158.980469 C 222.566406 158.882812 223.3125 158.835938 224.0625 158.835938 C 226.691406 158.835938 229.199219 159.4375 231.519531 160.628906 C 236.390625 163.128906 239.84375 168.003906 240.988281 174.003906 C 241.972656 179.179688 241.199219 184.835938 238.804688 189.929688 C 235.863281 196.179688 230.867188 200.765625 225.273438 202.65625 C 227.585938 206.671875 229.417969 211.980469 228.640625 218.765625 C 227.914062 225.039062 225.257812 230.375 220.957031 234.191406 C 216.945312 237.738281 211.679688 239.695312 206.121094 239.695312 " fill-opacity="1" fill-rule="nonzero"/><path fill="#4b9960" d="M 237.824219 174.664062 C 236.875 169.699219 234.0625 165.6875 230.097656 163.652344 C 228.222656 162.691406 226.195312 162.203125 224.0625 162.203125 C 221.996094 162.203125 219.941406 162.667969 217.992188 163.53125 C 219.109375 158.363281 218.71875 153.089844 216.890625 148.667969 C 214.816406 143.65625 211.011719 140.148438 206.449219 139.042969 C 205.421875 138.792969 204.371094 138.671875 203.3125 138.671875 C 196.867188 138.671875 190.804688 143.394531 187.542969 150.460938 C 184.566406 143.539062 178.832031 138.921875 172.367188 138.921875 C 171.894531 138.921875 171.414062 138.945312 170.941406 139 C 166.273438 139.5 162.058594 142.476562 159.386719 147.167969 C 156.996094 151.359375 155.964844 156.613281 156.492188 161.953125 C 156.523438 162.316406 156.570312 162.671875 156.617188 163.027344 C 154.789062 162.269531 152.875 161.867188 150.945312 161.867188 C 148.859375 161.867188 146.871094 162.335938 145.023438 163.261719 C 141.046875 165.257812 138.195312 169.246094 137.207031 174.199219 C 136.320312 178.644531 136.960938 183.542969 139.007812 187.996094 C 142.347656 195.253906 148.753906 199.941406 155.339844 199.941406 C 155.390625 199.941406 155.441406 199.9375 155.492188 199.9375 C 151.753906 204.558594 148.714844 210.257812 149.539062 218.011719 C 150.125 223.472656 152.378906 228.101562 156.070312 231.394531 C 159.507812 234.464844 164.0625 236.152344 168.898438 236.152344 C 170.988281 236.152344 173.109375 235.847656 175.203125 235.238281 C 182.496094 233.121094 185.5625 232.675781 186.558594 232.582031 L 187.425781 232.855469 L 188.296875 232.585938 C 189.285156 232.691406 192.339844 233.164062 199.625 235.347656 C 201.785156 235.996094 203.96875 236.324219 206.121094 236.324219 C 210.917969 236.324219 215.441406 234.652344 218.867188 231.617188 C 222.539062 228.363281 224.808594 223.78125 225.433594 218.359375 C 226.324219 210.617188 223.339844 204.890625 219.636719 200.238281 C 226.15625 200.222656 232.539062 195.59375 235.90625 188.445312 C 237.988281 184.011719 238.671875 179.117188 237.824219 174.664062 " fill-opacity="1" fill-rule="nonzero"/><path fill="#ffffff" d="M 208.613281 196.765625 C 204.683594 192.503906 202.710938 186.679688 198.546875 182.632812 C 196.488281 180.632812 193.921875 179.027344 191.171875 178.34375 C 190.992188 178.304688 187.660156 177.761719 187.65625 178.109375 C 187.660156 177.761719 184.320312 178.269531 184.140625 178.316406 C 181.382812 178.96875 178.804688 180.550781 176.730469 182.53125 C 172.53125 186.542969 170.507812 192.347656 166.542969 196.570312 C 160.941406 202.53125 154.203125 208 155.199219 217.351562 C 156.277344 227.445312 164.804688 232.078125 173.679688 229.507812 C 185.589844 226.054688 187.453125 226.644531 187.453125 226.644531 C 187.453125 226.644531 189.316406 226.070312 201.199219 229.628906 C 210.050781 232.289062 218.621094 227.734375 219.78125 217.652344 C 220.855469 208.304688 214.164062 202.777344 208.613281 196.765625 " fill-opacity="1" fill-rule="nonzero"/><path fill="#ffffff" d="M 212.410156 162.351562 C 210.578125 170.605469 204.355469 176.148438 198.515625 174.734375 C 192.675781 173.320312 189.429688 165.476562 191.265625 157.222656 C 193.101562 148.964844 199.320312 143.421875 205.160156 144.839844 C 211 146.253906 214.246094 154.09375 212.410156 162.351562 " fill-opacity="1" fill-rule="nonzero"/><path fill="#ffffff" d="M 183.894531 159.015625 C 184.722656 167.445312 180.527344 174.804688 174.523438 175.449219 C 168.519531 176.089844 162.984375 169.777344 162.15625 161.347656 C 161.328125 152.914062 165.519531 145.558594 171.527344 144.917969 C 177.527344 144.273438 183.066406 150.585938 183.894531 159.015625 " fill-opacity="1" fill-rule="nonzero"/><path fill="#ffffff" d="M 162.140625 176.386719 C 165.261719 183.171875 163.761719 190.691406 158.789062 193.183594 C 153.820312 195.679688 147.261719 192.203125 144.140625 185.421875 C 141.023438 178.640625 142.519531 171.117188 147.492188 168.621094 C 152.460938 166.128906 159.019531 169.605469 162.140625 176.386719 " fill-opacity="1" fill-rule="nonzero"/><path fill="#ffffff" d="M 212.871094 176.625 C 209.695312 183.375 211.132812 190.910156 216.082031 193.449219 C 221.03125 195.992188 227.621094 192.574219 230.796875 185.820312 C 233.972656 179.066406 232.535156 171.53125 227.585938 168.992188 C 222.636719 166.453125 216.046875 169.867188 212.871094 176.625 " fill-opacity="1" fill-rule="nonzero"/></svg>